<svg width="21" height="21" viewBox="0 0 21 21" fill="none" xmlns="http://www.w3.org/2000/svg">
<path fill-rule="evenodd" clip-rule="evenodd" d="M6.68745 17.0176C7.03911 17.0176 7.32495 17.3034 7.32495 17.6551C7.32495 18.0067 7.03911 18.2917 6.68745 18.2917C6.33578 18.2917 6.05078 18.0067 6.05078 17.6551C6.05078 17.3034 6.33578 17.0176 6.68745 17.0176Z" stroke="#FAFAFA" stroke-width="1.5" stroke-linecap="round" stroke-linejoin="round"/>
<path fill-rule="evenodd" clip-rule="evenodd" d="M16.0633 17.0176C16.4149 17.0176 16.7008 17.3034 16.7008 17.6551C16.7008 18.0067 16.4149 18.2917 16.0633 18.2917C15.7116 18.2917 15.4258 18.0067 15.4258 17.6551C15.4258 17.3034 15.7116 17.0176 16.0633 17.0176Z" stroke="#FAFAFA" stroke-width="1.5" stroke-linecap="round" stroke-linejoin="round"/>
<path d="M2.79297 3.20898L4.5263 3.50898L5.3288 13.0698C5.3938 13.849 6.04464 14.4473 6.8263 14.4473H15.9196C16.6663 14.4473 17.2996 13.899 17.4071 13.159L18.198 7.69398C18.2955 7.01982 17.773 6.41648 17.0921 6.41648H4.80464" stroke="#FAFAFA" stroke-width="1.5" stroke-linecap="round" stroke-linejoin="round"/>
<path d="M12.2734 9.49675H14.5843" stroke="#FAFAFA" stroke-width="1.5" stroke-linecap="round" stroke-linejoin="round"/>
</svg>
