<svg width="24" height="24" viewBox="0 0 24 24" fill="none" xmlns="http://www.w3.org/2000/svg">
<path d="M19.3238 9.4668C19.3238 9.4668 18.7808 16.2018 18.4658 19.0388C18.3158 20.3938 17.4788 21.1878 16.1078 21.2128C13.4988 21.2598 10.8868 21.2628 8.27881 21.2078C6.95981 21.1808 6.13681 20.3768 5.98981 19.0458C5.67281 16.1838 5.13281 9.4668 5.13281 9.4668" stroke="#1A1A1A" stroke-width="1.5" stroke-linecap="round" stroke-linejoin="round"/>
<path d="M20.708 6.23828H3.75" stroke="#1A1A1A" stroke-width="1.5" stroke-linecap="round" stroke-linejoin="round"/>
<path d="M17.4386 6.239C16.6536 6.239 15.9776 5.684 15.8236 4.915L15.5806 3.699C15.4306 3.138 14.9226 2.75 14.3436 2.75H10.1106C9.53163 2.75 9.02363 3.138 8.87363 3.699L8.63063 4.915C8.47663 5.684 7.80063 6.239 7.01562 6.239" stroke="#1A1A1A" stroke-width="1.5" stroke-linecap="round" stroke-linejoin="round"/>
</svg>
